<?xml version="1.0" encoding="UTF-8"?>
<svg xmlns="http://www.w3.org/2000/svg" id="Layer_1" data-name="Layer 1" viewBox="0 0 24 24">
  <path d="m19.5,6h-2.5v-.5c0-2.481-2.019-4.5-4.5-4.5H4.5C2.019,1,0,3.019,0,5.5v10c0,1.499.952,2.771,2.28,3.268-.179.387-.28.802-.28,1.232,0,1.654,1.346,3,3,3s3-1.346,3-3c0-.345-.064-.68-.18-1h8.359c-.116.32-.18.655-.18,1,0,1.654,1.346,3,3,3s3-1.346,3-3c0-.43-.101-.845-.28-1.232,1.328-.498,2.28-1.769,2.28-3.268v-5c0-2.481-2.019-4.5-4.5-4.5Zm0,1c1.93,0,3.5,1.57,3.5,3.5v1.5h-6v-5h2.5ZM1,15.5V5.5c0-1.93,1.57-3.5,3.5-3.5h8c1.93,0,3.5,1.57,3.5,3.5v12.5H3.5c-1.379,0-2.5-1.121-2.5-2.5Zm6,4.5c0,1.103-.897,2-2,2s-2-.897-2-2c0-.362.122-.705.314-1.019.063.003.122.019.186.019h3.196c.185.309.304.645.304,1Zm14,0c0,1.103-.897,2-2,2s-2-.897-2-2c0-.355.119-.691.304-1h3.196c.064,0,.123-.015.186-.019.192.314.314.657.314,1.019Zm-.5-2h-3.5v-5h6v2.5c0,1.379-1.121,2.5-2.5,2.5ZM5.281,9.926c-.271-.365-.352-.824-.22-1.26.015-.05,3.026-4.449,3.026-4.449.157-.227.467-.285.695-.129.228.156.285.468.129.695l-2.907,4.233c-.017.11.012.222.079.312.081.108.204.171.339.171h4.171c.519,0,.993.284,1.238.741s.219,1.009-.067,1.44l-2.854,4.104c-.097.14-.252.215-.41.215-.099,0-.198-.029-.285-.09-.227-.157-.283-.469-.125-.695l2.848-4.095c.114-.174.048-.343.013-.406-.034-.064-.138-.214-.356-.214h-4.171c-.454,0-.87-.209-1.142-.574Z"/>
</svg>
